<?xml version="1.0" standalone="no"?><!DOCTYPE svg PUBLIC "-//W3C//DTD SVG 1.1//EN" "http://www.w3.org/Graphics/SVG/1.1/DTD/svg11.dtd"><svg t="1486820446019" class="icon" style="" viewBox="0 0 1024 1024" version="1.1" xmlns="http://www.w3.org/2000/svg" p-id="1941" xmlns:xlink="http://www.w3.org/1999/xlink" width="16" height="16"><defs><style type="text/css"></style></defs><path d="M952 0H72C32.236 0 0 32.236 0 72v880c0 39.764 32.236 72 72 72h880c39.764 0 72-32.236 72-72V72c0-39.764-32.236-72-72-72z m8 928a32 32 0 0 1-32 32H96a32 32 0 0 1-32-32V96a32 32 0 0 1 32-32h832a32 32 0 0 1 32 32v832z" p-id="1942" fill="#ff4081"></path><path d="M330.584 482.232l113.956 221.208S629.736 253.864 921.748 104.004c-7.104 107.032-35.592 199.824 14.252 314.004-128.216 28.52-391.74 349.66-477.204 506.66-121.084-149.856-263.528-264.028-363.252-299.74l235.04-142.696z" p-id="1943" fill="#ff4081"></path></svg>