<?xml version="1.0" standalone="no"?><!DOCTYPE svg PUBLIC "-//W3C//DTD SVG 1.1//EN" "http://www.w3.org/Graphics/SVG/1.1/DTD/svg11.dtd"><svg t="1490600506127" class="icon" style="" viewBox="0 0 1025 1024" version="1.1" xmlns="http://www.w3.org/2000/svg" p-id="2951" xmlns:xlink="http://www.w3.org/1999/xlink" width="16.015625" height="16"><defs><style type="text/css"></style></defs><path d="M512 978.24 109.824 548.864c-76.8-82.624-113.6-166.976-109.44-251.008 5.376-108.8 78.848-174.848 81.984-177.6 58.048-49.536 120.192-74.496 185.088-74.496 111.616 0 201.152 73.664 244.48 117.696 43.456-44.16 132.608-117.696 244.736-117.696 64.896 0 126.976 24.96 184.64 74.112 3.648 3.136 76.992 69.184 82.368 177.984 4.224 83.968-32.64 168.384-109.376 250.88L512 978.24 512 978.24zM128.896 173.888c0 0-54.272 49.856-57.664 128.576C68.48 366.272 98.88 432.896 161.728 500.352L512 874.368l350.336-374.016c62.72-67.52 93.248-134.144 90.368-197.952-3.392-78.656-57.6-128.576-58.24-129.088-43.776-37.376-90.368-56.64-137.856-56.64-119.616 0-215.744 120.512-216.64 121.728l-28.8 36.608L483.392 237.632C483.008 237.12 387.648 116.736 267.392 116.736 219.904 116.736 173.312 136 128.896 173.888L128.896 173.888 128.896 173.888zM128.896 173.888" p-id="2952" fill="#ffffff"></path></svg>