<?xml version="1.0" standalone="no"?><!DOCTYPE svg PUBLIC "-//W3C//DTD SVG 1.1//EN" "http://www.w3.org/Graphics/SVG/1.1/DTD/svg11.dtd"><svg t="1490600205523" class="icon" style="" viewBox="0 0 1024 1024" version="1.1" xmlns="http://www.w3.org/2000/svg" p-id="2379" xmlns:xlink="http://www.w3.org/1999/xlink" width="16" height="16"><defs><style type="text/css"></style></defs><path d="M1013.8 351.4c0-169.4-131.3-307.2-292.4-307.2-79.6 0-154.9 34.8-209.3 94.1C457.5 79 382.2 44.2 302.7 44.2c-161.2 0-292.4 137.7-292.4 307.2 0 5.7 0.5 10.8 1 14.9-0.1 1.4-0.2 2.7-0.2 4.2 0 30 7.2 62.9 21.3 98 0.5 1.3 0.9 2.5 1.4 3.6 89.1 216.4 432.1 465.3 446.7 476.8 9.1 7.1 19.8 10.5 30.7 10.5 11 0 21.8-3.6 31-10.8 12.5-9.9 305-223 421.2-424.8 4.4-6.8 7.7-13.4 10.7-19.1 0.9-1.8 1.7-3.6 2.7-5.4l0.4-0.8c0.4-0.7 0.8-1.4 1.3-2 7-13.7 12.5-26.5 16.9-38.9 12-32 18-60.4 18-87 0-2-0.1-3.9-0.2-5.4C1013.4 361.7 1013.8 357 1013.8 351.4z" fill="#ff4081" p-id="2380"></path></svg>